<svg xmlns="http://www.w3.org/2000/svg" viewBox="0 0 400 400">
  <!-- Soft background blob -->
  <path d="M 200, 380 C 100, 380  20, 300  20, 200 C  20, 100 100,  20 200,  20 C 300,  20 380, 100 380, 200 C 380, 300 300, 380 200, 380 Z" fill="#ffe4e6" />
  
  <!-- Panda Head Shape -->
  <path d="M 120, 140 C 90, 140  60, 180  60, 220 C  60, 280 120, 320 200, 320 C 280, 320 340, 280 340, 220 C 340, 180 310, 140 280, 140 C 250, 140 230, 120 200, 120 C 170, 120 150, 140 120, 140 Z" fill="#ffffff" />
  
  <!-- Ears -->
  <path d="M 120, 140 C 90, 80 100, 60 140, 100" fill="#1f2937" />
  <path d="M 280, 140 C 310, 80 300, 60 260, 100" fill="#1f2937" />

  <!-- Eye Patches -->
  <path d="M 160, 220 C 120, 180  80, 200 100, 240 C 120, 280 160, 260 170, 220 Z" fill="#1f2937" />
  <path d="M 240, 220 C 280, 180 320, 200 300, 240 C 280, 280 240, 260 230, 220 Z" fill="#1f2937" />
  
  <!-- Eyes -->
  <circle cx="135" cy="225" r="10" fill="#ffffff" />
  <circle cx="265" cy="225" r="10" fill="#ffffff" />
  
  <!-- Catchlights -->
  <circle cx="140" cy="220" r="3" fill="#ffffff" />
  <circle cx="270" cy="220" r="3" fill="#ffffff" />

  <!-- Nose -->
  <ellipse cx="200" cy="250" rx="15" ry="8" fill="#1f2937" />
  <path d="M 200, 258 C 200, 270 180, 270 180, 265" stroke="#1f2937" stroke-width="4" stroke-linecap="round" fill="none" />
  <path d="M 200, 258 C 200, 270 220, 270 220, 265" stroke="#1f2937" stroke-width="4" stroke-linecap="round" fill="none" />
  
  <!-- Blush -->
  <ellipse cx="100" cy="265" rx="20" ry="10" fill="#f43f5e" opacity="0.3" />
  <ellipse cx="300" cy="265" rx="20" ry="10" fill="#f43f5e" opacity="0.3" />

  <!-- Hair Tuft -->
  <path d="M 190, 120 C 190, 100 200, 90 205, 110 C 210, 95 215, 100 210, 120" stroke="#ffffff" stroke-width="4" fill="#ffffff" />
</svg>
